<svg width="297" height="52" viewBox="0 0 297 52" fill="none" xmlns="http://www.w3.org/2000/svg">
<path d="M19.456 1.736L18.64 7.208H8.32V15.416H17.344V20.792H8.32V29.432H19.36V35H0.64V1.736H19.456ZM32.4944 1.736V28.904H44.0624L43.2464 35H24.8144V1.736H32.4944ZM72.5672 0.919998C74.4872 0.919998 76.1993 1.224 77.7033 1.832C79.2073 2.44 80.6313 3.352 81.9753 4.568L78.3273 8.84C77.4633 8.104 76.5993 7.56 75.7353 7.208C74.9033 6.824 74.0073 6.632 73.0473 6.632C68.8873 6.632 66.8073 10.52 66.8073 18.296C66.8073 26.008 68.9033 29.864 73.0953 29.864C74.1833 29.864 75.1433 29.656 75.9753 29.24C76.8393 28.792 77.7993 28.152 78.8553 27.32L82.3113 31.544C81.1273 32.792 79.7033 33.816 78.0393 34.616C76.4073 35.416 74.5993 35.816 72.6153 35.816C69.8313 35.816 67.3993 35.16 65.3193 33.848C63.2713 32.536 61.6712 30.568 60.5192 27.944C59.3672 25.32 58.7912 22.104 58.7912 18.296C58.7912 14.584 59.3832 11.432 60.5672 8.84C61.7512 6.216 63.3672 4.248 65.4153 2.936C67.4953 1.592 69.8793 0.919998 72.5672 0.919998ZM98.1456 0.919998C102.53 0.919998 105.906 2.408 108.274 5.384C110.642 8.328 111.826 12.648 111.826 18.344C111.826 23.976 110.626 28.296 108.226 31.304C105.858 34.312 102.498 35.816 98.1456 35.816C93.7936 35.816 90.4176 34.328 88.0176 31.352C85.6496 28.376 84.4656 24.04 84.4656 18.344C84.4656 12.744 85.6496 8.44 88.0176 5.432C90.4176 2.424 93.7936 0.919998 98.1456 0.919998ZM98.1456 6.536C96.1936 6.536 94.7536 7.448 93.8256 9.272C92.9296 11.096 92.4816 14.12 92.4816 18.344C92.4816 22.632 92.9456 25.688 93.8736 27.512C94.8016 29.304 96.2256 30.2 98.1456 30.2C100.098 30.2 101.522 29.304 102.418 27.512C103.346 25.688 103.81 22.632 103.81 18.344C103.81 14.12 103.346 11.096 102.418 9.272C101.522 7.448 100.098 6.536 98.1456 6.536ZM127.276 0.919998C129.516 0.919998 131.484 1.288 133.18 2.024C134.908 2.728 136.476 3.784 137.884 5.192L134.38 9.224C132.3 7.432 130.172 6.536 127.996 6.536C126.78 6.536 125.82 6.84 125.116 7.448C124.412 8.056 124.06 8.888 124.06 9.944C124.06 10.648 124.22 11.24 124.54 11.72C124.86 12.2 125.42 12.664 126.22 13.112C127.02 13.56 128.204 14.072 129.772 14.648C131.82 15.416 133.468 16.248 134.716 17.144C135.996 18.008 136.972 19.096 137.644 20.408C138.316 21.72 138.652 23.352 138.652 25.304C138.652 27.352 138.156 29.176 137.164 30.776C136.204 32.344 134.796 33.576 132.94 34.472C131.116 35.368 128.972 35.816 126.508 35.816C121.868 35.816 118.012 34.248 114.94 31.112L118.684 26.936C119.868 27.96 121.052 28.744 122.236 29.288C123.452 29.832 124.732 30.104 126.076 30.104C127.548 30.104 128.684 29.72 129.484 28.952C130.284 28.184 130.684 27.16 130.684 25.88C130.684 24.664 130.316 23.688 129.58 22.952C128.844 22.216 127.452 21.48 125.404 20.744C122.076 19.496 119.708 18.088 118.3 16.52C116.892 14.952 116.188 12.952 116.188 10.52C116.188 8.632 116.668 6.968 117.628 5.528C118.588 4.056 119.9 2.92 121.564 2.12C123.26 1.32 125.164 0.919998 127.276 0.919998ZM173.682 35H166.338L165.906 21.848C165.778 18.008 165.714 15.176 165.714 13.352C165.714 11.112 165.746 9.464 165.81 8.408L161.442 31.496H154.242L149.634 8.408C149.762 10.84 149.826 13.416 149.826 16.136C149.826 17.352 149.794 19.304 149.73 21.992L149.298 35H142.002L144.21 1.736H153.81L157.986 24.392L161.826 1.736H171.474L173.682 35ZM191.2 0.919998C195.584 0.919998 198.96 2.408 201.328 5.384C203.696 8.328 204.88 12.648 204.88 18.344C204.88 23.976 203.68 28.296 201.28 31.304C198.912 34.312 195.552 35.816 191.2 35.816C186.848 35.816 183.472 34.328 181.072 31.352C178.704 28.376 177.52 24.04 177.52 18.344C177.52 12.744 178.704 8.44 181.072 5.432C183.472 2.424 186.848 0.919998 191.2 0.919998ZM191.2 6.536C189.248 6.536 187.808 7.448 186.88 9.272C185.984 11.096 185.536 14.12 185.536 18.344C185.536 22.632 186 25.688 186.928 27.512C187.856 29.304 189.28 30.2 191.2 30.2C193.152 30.2 194.576 29.304 195.472 27.512C196.4 25.688 196.864 22.632 196.864 18.344C196.864 14.12 196.4 11.096 195.472 9.272C194.576 7.448 193.152 6.536 191.2 6.536Z" fill="white"/>
<path d="M226.907 30.968C227.355 30.68 227.275 30.392 226.667 30.104C226.091 29.752 225.371 29.432 224.507 29.144C223.579 28.92 222.603 28.808 221.579 28.808C219.723 28.872 218.795 29.464 218.795 30.584C218.795 31.288 219.195 31.816 219.995 32.168C220.699 32.584 221.467 32.792 222.299 32.792C223.195 32.792 224.043 32.584 224.843 32.168C225.675 31.816 226.363 31.416 226.907 30.968ZM265.259 48.296C267.595 48.232 269.531 47.816 271.067 47.048C272.571 46.408 273.739 45.624 274.571 44.696C275.531 43.672 276.219 42.712 276.635 41.816C277.019 40.952 277.259 40.264 277.355 39.752C277.515 39.368 277.723 39.192 277.979 39.224C278.139 39.288 278.187 39.512 278.123 39.896C276.331 47.352 271.419 51.144 263.387 51.272C257.211 51.272 250.539 48.456 243.371 42.824C235.275 36.328 230.443 32.568 228.875 31.544C228.747 31.384 228.507 31.416 228.155 31.64C225.467 33.816 222.811 34.952 220.187 35.048C217.275 34.952 215.819 33.992 215.819 32.168C215.819 31.752 215.963 31.288 216.251 30.776C216.571 30.296 217.051 29.784 217.691 29.24C218.427 28.728 219.291 28.248 220.283 27.8C221.339 27.384 222.411 27.176 223.499 27.176C225.419 27.176 227.099 27.48 228.539 28.088C228.827 28.344 229.067 28.312 229.259 27.992C229.611 27.384 229.963 26.344 230.315 24.872C230.699 23.432 231.147 20.888 231.659 17.24C231.979 14.552 232.667 12.44 233.723 10.904C234.651 9.4 235.883 8.056 237.419 6.872C239.787 5.208 241.675 4.36 243.083 4.328C243.691 4.328 244.155 4.44 244.475 4.664C244.827 4.92 245.051 5.176 245.147 5.432C245.371 5.784 245.371 6.232 245.147 6.776C244.763 7.384 244.363 7.832 243.947 8.12C243.371 8.536 242.875 8.568 242.459 8.216C241.595 7.416 240.747 7.016 239.915 7.016C239.019 6.952 238.251 7.56 237.611 8.84C236.939 10.184 236.347 12.68 235.835 16.328C235.291 20.2 234.555 23.064 233.627 24.92C232.539 26.84 231.611 28.168 230.843 28.904C230.619 29.096 230.683 29.32 231.035 29.576C236.475 33.224 241.915 37.08 247.355 41.144C250.139 43.16 253.067 44.808 256.139 46.088C259.243 47.496 262.283 48.232 265.259 48.296ZM257.982 26.024C257.982 26.568 257.95 27.096 257.886 27.608C257.566 29.496 256.286 31.304 254.046 33.032C251.838 34.728 249.742 35.576 247.758 35.576C245.422 35.576 244.254 34.024 244.254 30.92C244.254 27.784 245.758 25.112 248.766 22.904C249.342 22.488 250.222 22.008 251.406 21.464C252.75 20.856 253.694 20.552 254.238 20.552C255.55 20.552 256.542 21.16 257.214 22.376C257.726 23.368 257.982 24.584 257.982 26.024ZM253.998 26.552C253.998 23.704 253.294 22.28 251.886 22.28C250.67 22.28 249.726 23.24 249.054 25.16C248.542 26.632 248.286 28.104 248.286 29.576C248.286 32.52 249.102 33.992 250.734 33.992C251.886 33.992 252.766 33 253.374 31.016C253.79 29.576 253.998 28.088 253.998 26.552ZM279.307 26.216C279.307 26.504 278.971 26.696 278.299 26.792C277.627 26.888 277.291 26.936 277.291 26.936C277.291 26.936 277.195 27.224 277.003 27.8C276.235 30.104 275.051 31.944 273.451 33.32C271.691 34.824 269.643 35.576 267.307 35.576C266.315 35.576 265.435 35.16 264.667 34.328C263.931 33.464 263.563 32.52 263.563 31.496C263.563 28.808 264.939 26.232 267.691 23.768C266.667 23.832 265.643 23.912 264.619 24.008C263.179 24.232 262.459 24.744 262.459 25.544C262.459 25.832 262.683 26.344 263.131 27.08L262.891 27.32C262.155 27.192 261.787 26.616 261.787 25.592C261.787 24.568 262.219 23.624 263.083 22.76C263.851 21.96 264.747 21.432 265.771 21.176C266.923 21.048 268.619 20.76 270.859 20.312C271.019 20.376 271.099 20.504 271.099 20.696C271.099 20.792 270.955 21 270.667 21.32C269.963 22.248 269.323 23.496 268.747 25.064C268.203 26.632 267.931 27.976 267.931 29.096C267.931 30.088 268.139 31.032 268.555 31.928C269.067 33.08 269.755 33.656 270.619 33.656C271.867 33.656 272.859 33.048 273.595 31.832C274.203 30.808 274.507 29.624 274.507 28.28C274.507 27.608 274.331 26.616 273.979 25.304C273.627 23.992 273.451 22.984 273.451 22.28C273.451 21.896 273.483 21.576 273.547 21.32C273.611 21.064 273.979 20.808 274.651 20.552C275.323 20.296 275.851 20.168 276.235 20.168C276.619 20.168 276.923 20.728 277.147 21.848C277.275 22.584 277.403 23.32 277.531 24.056C277.659 24.344 277.979 24.744 278.491 25.256C279.035 25.768 279.307 26.088 279.307 26.216ZM296.452 32.312C296.452 32.408 296.356 32.584 296.164 32.84C295.46 33.704 294.372 34.392 292.9 34.904C291.588 35.352 290.276 35.576 288.964 35.576C287.236 35.576 285.78 35.192 284.596 34.424C283.22 33.528 282.532 32.264 282.532 30.632C282.532 29.384 282.948 27.992 283.78 26.456C282.724 26.232 282.196 25.736 282.196 24.968C282.196 24.232 282.436 23.864 282.916 23.864C283.076 23.864 283.156 23.976 283.156 24.2C283.156 24.264 283.124 24.36 283.06 24.488C282.996 24.616 282.964 24.712 282.964 24.776C282.964 25.384 283.348 25.752 284.116 25.88C284.916 24.568 286.484 23.288 288.82 22.04C291.156 20.792 293.124 20.168 294.724 20.168C295.396 20.168 295.732 20.504 295.732 21.176C295.732 22.392 294.676 23.592 292.564 24.776C290.836 25.736 289.236 26.312 287.764 26.504C287.444 27.656 287.284 28.696 287.284 29.624C287.284 32.632 288.772 34.136 291.748 34.136C292.74 34.136 293.716 33.752 294.676 32.984C295.668 32.216 296.18 31.832 296.212 31.832C296.372 31.832 296.452 31.992 296.452 32.312ZM291.796 22.52C291.796 22.264 291.636 22.136 291.316 22.136C290.036 22.136 288.932 23.336 288.004 25.736C290.532 25.224 291.796 24.152 291.796 22.52Z" fill="#E3311D"/>
</svg>
